# xmcd
#
# Track frame offsets:
#	150
#	23708
#	42415
#	65749
#	84606
#	102457
#	119724
#	135797
#	155322
#	187374
#	210153
#	223998
#
# Disc length: 3060 seconds
#
# Revision: 1
# Processed by: cddbd v1.5.2PL0 Copyright (c) Steve Scherf et al.
# Submitted via: audiograbber 1.83.01
#
DISCID=b10bf20c
DTITLE=AG Weinberger - Guitar Man 1
DYEAR=1999
DGENRE=Blues
TTITLE0=Spoonful
TTITLE1=Magic Song
TTITLE2=Take Me To The Highway
TTITLE3=Cry Me A River
TTITLE4=Hoochie Coochie Man
TTITLE5=Ain't no nothing to tell
TTITLE6=Load Me Up
TTITLE7=Homage For 'Gate'
TTITLE8=I Heard It Through The Grapevine
TTITLE9=1600 Transylvania Avenue
TTITLE10=I can't get enough
TTITLE11=Frozen Finger Rag
EXTD=
EXTT0=
EXTT1=
EXTT2=
EXTT3=
EXTT4=
EXTT5=
EXTT6=
EXTT7=
EXTT8=
EXTT9=
EXTT10=
EXTT11=
PLAYORDER=
